<svg width="180" height="180" viewBox="0 0 180 180" fill="none" xmlns="http://www.w3.org/2000/svg">
  <rect width="180" height="180" rx="40" fill="#16274D"/>
  <defs>
    <linearGradient id="g" x1="90" y1="30" x2="90" y2="150" gradientUnits="userSpaceOnUse">
      <stop offset="0" stop-color="#D9B45C"/>
      <stop offset="0.55" stop-color="#C49A3D"/>
      <stop offset="1" stop-color="#9F7C29"/>
    </linearGradient>
  </defs>
  <polygon points="90,30 142,60 142,120 90,150 38,120 38,60" fill="url(#g)"/>
  <g fill="#F7F0DC" fill-opacity="0.92">
    <path transform="rotate(0 90 90)" d="M90 90 C 99.4 61.9, 118.1 50.6, 142.5 56.3 C 129.4 75, 112.5 90, 90 90 Z"/>
    <path transform="rotate(60 90 90)" d="M90 90 C 99.4 61.9, 118.1 50.6, 142.5 56.3 C 129.4 75, 112.5 90, 90 90 Z"/>
    <path transform="rotate(120 90 90)" d="M90 90 C 99.4 61.9, 118.1 50.6, 142.5 56.3 C 129.4 75, 112.5 90, 90 90 Z"/>
    <path transform="rotate(180 90 90)" d="M90 90 C 99.4 61.9, 118.1 50.6, 142.5 56.3 C 129.4 75, 112.5 90, 90 90 Z"/>
    <path transform="rotate(240 90 90)" d="M90 90 C 99.4 61.9, 118.1 50.6, 142.5 56.3 C 129.4 75, 112.5 90, 90 90 Z"/>
    <path transform="rotate(300 90 90)" d="M90 90 C 99.4 61.9, 118.1 50.6, 142.5 56.3 C 129.4 75, 112.5 90, 90 90 Z"/>
  </g>
  <circle cx="90" cy="90" r="9" fill="#9F7C29"/>
</svg>
